ISO-10303-21;
HEADER;
FILE_DESCRIPTION(('Open CASCADE Model'),'2;1');
FILE_NAME('Open CASCADE Shape Model','2026-09-22T21:36:56',('Author'),(
    'Open CASCADE'),'Open CASCADE STEP processor 7.9','Open CASCADE 7.9'
  ,'Unknown');
FILE_SCHEMA(('AUTOMOTIVE_DESIGN { 1 0 10303 214 1 1 1 1 }'));
ENDSEC;
DATA;
#1 = APPLICATION_PROTOCOL_DEFINITION('international standard',
  'automotive_design',2000,#2);
#2 = APPLICATION_CONTEXT(
  'core data for automotive mechanical design processes');
#3 = SHAPE_DEFINITION_REPRESENTATION(#4,#10);
#4 = PRODUCT_DEFINITION_SHAPE('','',#5);
#5 = PRODUCT_DEFINITION('design','',#6,#9);
#6 = PRODUCT_DEFINITION_FORMATION('','',#7);
#7 = PRODUCT('Open CASCADE STEP translator 7.9 1',
  'Open CASCADE STEP translator 7.9 1','',(#8));
#8 = PRODUCT_CONTEXT('',#2,'mechanical');
#9 = PRODUCT_DEFINITION_CONTEXT('part definition',#2,'design');
#10 = ADVANCED_BREP_SHAPE_REPRESENTATION('',(#11,#15),#850);
#11 = AXIS2_PLACEMENT_3D('',#12,#13,#14);
#12 = CARTESIAN_POINT('',(0.,0.,0.));
#13 = DIRECTION('',(0.,0.,1.));
#14 = DIRECTION('',(1.,0.,-0.));
#15 = MANIFOLD_SOLID_BREP('',#16);
#16 = CLOSED_SHELL('',(#17,#758,#793,#843));
#17 = ADVANCED_FACE('',(#18),#31,.T.);
#18 = FACE_BOUND('',#19,.T.);
#19 = EDGE_LOOP('',(#20,#382,#730,#757));
#20 = ORIENTED_EDGE('',*,*,#21,.T.);
#21 = EDGE_CURVE('',#22,#22,#24,.T.);
#22 = VERTEX_POINT('',#23);
#23 = CARTESIAN_POINT('',(37.,0.,50.));
#24 = SURFACE_CURVE('',#25,(#30,#370),.PCURVE_S1.);
#25 = CIRCLE('',#26,37.);
#26 = AXIS2_PLACEMENT_3D('',#27,#28,#29);
#27 = CARTESIAN_POINT('',(0.,0.,50.));
#28 = DIRECTION('',(0.,0.,1.));
#29 = DIRECTION('',(1.,0.,-0.));
#30 = PCURVE('',#31,#364);
#31 = SURFACE_OF_REVOLUTION('',#32,#361);
#32 = B_SPLINE_CURVE_WITH_KNOTS('',3,(#33,#34,#35,#36,#37,#38,#39,#40,
    #41,#42,#43,#44,#45,#46,#47,#48,#49,#50,#51,#52,#53,#54,#55,#56,#57,
    #58,#59,#60,#61,#62,#63,#64,#65,#66,#67,#68,#69,#70,#71,#72,#73,#74,
    #75,#76,#77,#78,#79,#80,#81,#82,#83,#84,#85,#86,#87,#88,#89,#90,#91,
    #92,#93,#94,#95,#96,#97,#98,#99,#100,#101,#102,#103,#104,#105,#106,
    #107,#108,#109,#110,#111,#112,#113,#114,#115,#116,#117,#118,#119,
    #120,#121,#122,#123,#124,#125,#126,#127,#128,#129,#130,#131,#132,
    #133,#134,#135,#136,#137,#138,#139,#140,#141,#142,#143,#144,#145,
    #146,#147,#148,#149,#150,#151,#152,#153,#154,#155,#156,#157,#158,
    #159,#160,#161,#162,#163,#164,#165,#166,#167,#168,#169,#170,#171,
    #172,#173,#174,#175,#176,#177,#178,#179,#180,#181,#182,#183,#184,
    #185,#186,#187,#188,#189,#190,#191,#192,#193,#194,#195,#196,#197,
    #198,#199,#200,#201,#202,#203,#204,#205,#206,#207,#208,#209,#210,
    #211,#212,#213,#214,#215,#216,#217,#218,#219,#220,#221,#222,#223,
    #224,#225,#226,#227,#228,#229,#230,#231,#232,#233,#234,#235,#236,
    #237,#238,#239,#240,#241,#242,#243,#244,#245,#246,#247,#248,#249,
    #250,#251,#252,#253,#254,#255,#256,#257,#258,#259,#260,#261,#262,
    #263,#264,#265,#266,#267,#268,#269,#270,#271,#272,#273,#274,#275,
    #276,#277,#278,#279,#280,#281,#282,#283,#284,#285,#286,#287,#288,
    #289,#290,#291,#292,#293,#294,#295,#296,#297,#298,#299,#300,#301,
    #302,#303,#304,#305,#306,#307,#308,#309,#310,#311,#312,#313,#314,
    #315,#316,#317,#318,#319,#320,#321,#322,#323,#324,#325,#326,#327,
    #328,#329,#330,#331,#332,#333,#334,#335,#336,#337,#338,#339,#340,
    #341,#342,#343,#344,#345,#346,#347,#348,#349,#350,#351,#352,#353,
    #354,#355,#356,#357,#358,#359,#360),.UNSPECIFIED.,.F.,.F.,(4,1,1,1,1
    ,1,1,1,1,1,1,1,1,1,1,1,1,1,1,1,1,1,1,1,1,1,1,1,1,1,1,1,1,1,1,1,1,1,1
    ,1,1,1,1,1,1,1,1,1,1,1,1,1,1,1,1,1,1,1,1,1,1,1,1,1,1,1,1,1,1,1,1,1,1
    ,1,1,1,1,1,1,1,1,1,1,1,1,1,1,1,1,1,1,1,1,1,1,1,1,1,1,1,1,1,1,1,1,1,1
    ,1,1,1,1,1,1,1,1,1,1,1,1,1,1,1,1,1,1,1,1,1,1,1,1,1,1,1,1,1,1,1,1,1,1
    ,1,1,1,1,1,1,1,1,1,1,1,1,1,1,1,1,1,1,1,1,1,1,1,1,1,1,1,1,1,1,1,1,1,1
    ,1,1,1,1,1,1,1,1,1,1,1,1,1,1,1,1,1,1,1,1,1,1,1,1,1,1,1,1,1,1,1,1,1,1
    ,1,1,1,1,1,1,1,1,1,1,1,1,1,1,1,1,1,1,1,1,1,1,1,1,1,1,1,1,1,1,1,1,1,1
    ,1,1,1,1,1,1,1,1,1,1,1,1,1,1,1,1,1,1,1,1,1,1,1,1,1,1,1,1,1,1,1,1,1,1
    ,1,1,1,1,1,1,1,1,1,1,1,1,1,1,1,1,1,1,1,1,1,1,1,1,1,1,1,1,1,1,1,1,1,1
    ,1,1,1,1,1,1,1,1,1,1,1,1,1,1,4),(0.,2.,4.,6.,8.,10.,12.,14.,16.,18.,
    20.,22.,24.,26.,28.,30.,32.,34.,36.,38.,40.,42.,44.,46.,48.,50.,52.,
    54.,56.,58.,60.,62.,64.,66.,68.,70.,72.,74.,76.,78.,80.,82.,84.,86.,
    88.,90.,92.,94.,96.,98.,100.,102.,104.,106.,108.,110.,112.,114.,116.
    ,118.,120.,122.,124.,126.,128.,130.,132.,134.,136.,138.,140.,142.,
    144.,146.,148.,150.,152.,154.,156.,158.,160.,162.,164.,166.,168.,
    170.,172.,174.,176.,178.,180.,182.,184.,186.,188.,190.,192.,194.,
    196.,198.,200.,202.,204.,206.,208.,210.,212.,214.,216.,218.,220.,
    222.,224.,226.00000000241,228.00000015606,230.0000007673,
    232.00000213478,234.00000455194,236.00000830701,238.00001368303,
    240.00002095791,242.00003040445,244.00004229036,246.0000568783,
    248.0000744259,250.00009518582,252.00011940572,254.00014732837,
    256.00017919162,258.00021522843,260.00025566696,262.00030073053,
    264.00035063768,266.00040560223,268.00046583325,270.00053153512,
    272.0006029076,274.00068014578,276.00076344017,278.00085297672,
    280.00094893682,282.00105149739,284.00116083084,286.00127710514,
    288.00140048388,290.00153112621,292.00166918697,294.00181481666,
    296.00196816148,298.00212936339,300.00229856008,302.00247588508,
    304.00266146772,306.0028554332,308.0030579026,310.00326899294,
    312.00348881716,314.00371748421,316.00395509904,318.00420176263,
    320.00445757205,322.00472262046,324.00499699716,326.00528078761,
    328.00557407347,330.00587693261,332.00618943917,334.00651166357,
    336.00684367254,338.00718552916,340.00753729289,342.00789901959,
    344.00827076157,346.00865256759,348.00904448293,350.00944654937,
    352.00985880528,354.0102812856,356.01071402189,358.01115704238,
    360.01161037196,362.01207403224,364.01254804157,366.01303241508,
    368.01352716469,370.01403229916,372.01454782412,374.01507374208,
    376.01561005249,378.01615675175,380.01671383324,382.01728128736,
    384.01785910155,386.01844726035,388.01904574538,390.01965453541,
    392.02027360637,394.02090293142,396.0215424809,398.02219222245,
    400.02285212098,402.02352213873,404.02420223528,406.02489236761,
    408.02559249009,410.02630255454,412.02702251026,414.02775230406,
    416.02849188025,418.02924118074,420.03000014502,422.03076871021,
    424.03154681107,426.03233438006,428.03313134735,430.03393764087,
    432.03475318631,434.03557790717,436.0364117248,438.0372545584,
    440.03810632509,442.0389669399,444.03983631583,446.04071436386,
    448.04160099301,450.04249611033,452.04339962096,454.04431142816,
    456.0452314333,458.04615953597,460.04709563392,462.04803962317,
    464.04899139796,466.04995085086,468.05091787276,470.05189235288,
    472.05287417886,474.05386323673,476.05485941097,478.05586258455,
    480.05687263892,482.0578894541,484.05891290865,486.05994287974,
    488.06097924317,490.06202187339,492.06307064355,494.06412542551,
    496.06518608989,498.06625250607,500.06732454226,502.0684020655,
    504.06948494171,506.0705730357,508.07166621123,510.072764331,
    512.07386725671,514.0749748491,516.07608696794,518.07720347209,
    520.07832421953,522.07944906738,524.08057787194,526.08171048871,
    528.08284677242,530.08398657707,532.08512975598,534.08627616174,
    536.08742564636,538.0885780612,540.08973325704,542.09089108412,
    544.09205139215,546.09321403035,548.09437884749,550.09554569188,
    552.09671441146,554.09788485379,556.09905686608,558.10023029525,
    560.10140498792,562.10258079048,564.10375754909,566.10493510972,
    568.1061133182,570.10729202022,572.10847106135,574.10965028715,
    576.11082954309,578.11200867465,580.11318752736,582.11436594677,
    584.11554377853,586.1167208684,588.11789706231,590.11907220632,
    592.12024614674,594.1214187301,596.12258980319,598.1237592131,
    600.12492680727,602.12609243346,604.12725593985,606.12841717503,
    608.12957598803,610.13073222837,612.13188574608,614.13303639172,
    616.13418401644,618.13532847196,620.13646961066,622.13760728558,
    624.13874135043,626.13987165967,628.14099806848,630.14212043286,
    632.1432386096,634.14435245633,636.14546183157,638.14656659475,
    640.1476666062,642.14876172725,644.14985182022,646.15093674844,
    648.15201637631,650.15309056931),.UNSPECIFIED.);
#33 = CARTESIAN_POINT('',(37.,0.,50.));
#34 = CARTESIAN_POINT('',(37.,0.,50.666666666667));
#35 = CARTESIAN_POINT('',(37.,0.,52.));
#36 = CARTESIAN_POINT('',(37.,0.,54.));
#37 = CARTESIAN_POINT('',(37.,0.,56.));
#38 = CARTESIAN_POINT('',(37.,0.,58.));
#39 = CARTESIAN_POINT('',(37.,0.,60.));
#40 = CARTESIAN_POINT('',(37.,0.,62.));
#41 = CARTESIAN_POINT('',(37.,0.,64.));
#42 = CARTESIAN_POINT('',(37.,0.,66.));
#43 = CARTESIAN_POINT('',(37.,0.,68.));
#44 = CARTESIAN_POINT('',(37.,0.,70.));
#45 = CARTESIAN_POINT('',(37.,0.,72.));
#46 = CARTESIAN_POINT('',(37.,0.,74.));
#47 = CARTESIAN_POINT('',(37.,0.,76.));
#48 = CARTESIAN_POINT('',(37.,0.,78.));
#49 = CARTESIAN_POINT('',(37.,0.,80.));
#50 = CARTESIAN_POINT('',(37.,0.,82.));
#51 = CARTESIAN_POINT('',(37.,0.,84.));
#52 = CARTESIAN_POINT('',(37.,0.,86.));
#53 = CARTESIAN_POINT('',(37.,0.,88.));
#54 = CARTESIAN_POINT('',(37.,0.,90.));
#55 = CARTESIAN_POINT('',(37.,0.,92.));
#56 = CARTESIAN_POINT('',(37.,0.,94.));
#57 = CARTESIAN_POINT('',(37.,0.,96.));
#58 = CARTESIAN_POINT('',(37.,0.,98.));
#59 = CARTESIAN_POINT('',(37.,0.,100.));
#60 = CARTESIAN_POINT('',(37.,0.,102.));
#61 = CARTESIAN_POINT('',(37.,0.,104.));
#62 = CARTESIAN_POINT('',(37.,0.,106.));
#63 = CARTESIAN_POINT('',(37.,0.,108.));
#64 = CARTESIAN_POINT('',(37.,0.,110.));
#65 = CARTESIAN_POINT('',(37.,0.,112.));
#66 = CARTESIAN_POINT('',(37.,0.,114.));
#67 = CARTESIAN_POINT('',(37.,0.,116.));
#68 = CARTESIAN_POINT('',(37.,0.,118.));
#69 = CARTESIAN_POINT('',(37.,0.,120.));
#70 = CARTESIAN_POINT('',(37.,0.,122.));
#71 = CARTESIAN_POINT('',(37.,0.,124.));
#72 = CARTESIAN_POINT('',(37.,0.,126.));
#73 = CARTESIAN_POINT('',(37.,0.,128.));
#74 = CARTESIAN_POINT('',(37.,0.,130.));
#75 = CARTESIAN_POINT('',(37.,0.,132.));
#76 = CARTESIAN_POINT('',(37.,0.,134.));
#77 = CARTESIAN_POINT('',(37.,0.,136.));
#78 = CARTESIAN_POINT('',(37.,0.,138.));
#79 = CARTESIAN_POINT('',(37.,0.,140.));
#80 = CARTESIAN_POINT('',(37.,0.,142.));
#81 = CARTESIAN_POINT('',(37.,0.,144.));
#82 = CARTESIAN_POINT('',(37.,0.,146.));
#83 = CARTESIAN_POINT('',(37.,0.,148.));
#84 = CARTESIAN_POINT('',(37.,0.,150.));
#85 = CARTESIAN_POINT('',(37.,0.,152.));
#86 = CARTESIAN_POINT('',(37.,0.,154.));
#87 = CARTESIAN_POINT('',(37.,0.,156.));
#88 = CARTESIAN_POINT('',(37.,0.,158.));
#89 = CARTESIAN_POINT('',(37.,0.,160.));
#90 = CARTESIAN_POINT('',(37.,0.,162.));
#91 = CARTESIAN_POINT('',(37.,0.,164.));
#92 = CARTESIAN_POINT('',(37.,0.,166.));
#93 = CARTESIAN_POINT('',(37.,0.,168.));
#94 = CARTESIAN_POINT('',(37.,0.,170.));
#95 = CARTESIAN_POINT('',(37.,0.,172.));
#96 = CARTESIAN_POINT('',(37.,0.,174.));
#97 = CARTESIAN_POINT('',(37.,0.,176.));
#98 = CARTESIAN_POINT('',(37.,0.,178.));
#99 = CARTESIAN_POINT('',(37.,0.,180.));
#100 = CARTESIAN_POINT('',(37.,0.,182.));
#101 = CARTESIAN_POINT('',(37.,0.,184.));
#102 = CARTESIAN_POINT('',(37.,0.,186.));
#103 = CARTESIAN_POINT('',(37.,0.,188.));
#104 = CARTESIAN_POINT('',(37.,0.,190.));
#105 = CARTESIAN_POINT('',(37.,0.,192.));
#106 = CARTESIAN_POINT('',(37.,0.,194.));
#107 = CARTESIAN_POINT('',(37.,0.,196.));
#108 = CARTESIAN_POINT('',(37.,0.,198.));
#109 = CARTESIAN_POINT('',(37.,0.,200.));
#110 = CARTESIAN_POINT('',(37.,0.,202.));
#111 = CARTESIAN_POINT('',(37.,0.,204.));
#112 = CARTESIAN_POINT('',(37.,0.,206.));
#113 = CARTESIAN_POINT('',(37.,0.,208.));
#114 = CARTESIAN_POINT('',(37.,0.,210.));
#115 = CARTESIAN_POINT('',(37.,0.,212.));
#116 = CARTESIAN_POINT('',(37.,0.,214.));
#117 = CARTESIAN_POINT('',(37.,0.,216.));
#118 = CARTESIAN_POINT('',(37.,0.,218.));
#119 = CARTESIAN_POINT('',(37.,0.,220.));
#120 = CARTESIAN_POINT('',(37.,0.,222.));
#121 = CARTESIAN_POINT('',(37.,0.,224.));
#122 = CARTESIAN_POINT('',(37.,0.,226.));
#123 = CARTESIAN_POINT('',(37.,0.,228.));
#124 = CARTESIAN_POINT('',(37.,0.,230.));
#125 = CARTESIAN_POINT('',(37.,0.,232.));
#126 = CARTESIAN_POINT('',(37.,0.,234.));
#127 = CARTESIAN_POINT('',(37.,0.,236.));
#128 = CARTESIAN_POINT('',(37.,0.,238.));
#129 = CARTESIAN_POINT('',(37.,0.,240.));
#130 = CARTESIAN_POINT('',(37.,0.,242.));
#131 = CARTESIAN_POINT('',(37.,0.,244.));
#132 = CARTESIAN_POINT('',(37.,0.,246.));
#133 = CARTESIAN_POINT('',(37.,0.,248.));
#134 = CARTESIAN_POINT('',(37.000000000002,0.,250.));
#135 = CARTESIAN_POINT('',(36.999999999994,0.,252.));
#136 = CARTESIAN_POINT('',(37.000000000023,0.,254.));
#137 = CARTESIAN_POINT('',(36.999999999915,0.,256.));
#138 = CARTESIAN_POINT('',(37.000000000317,0.,258.));
#139 = CARTESIAN_POINT('',(36.999999998817,0.,260.));
#140 = CARTESIAN_POINT('',(37.000000004417,0.,261.99999999999));
#141 = CARTESIAN_POINT('',(36.999999983516,0.,264.));
#142 = CARTESIAN_POINT('',(37.000000061518,0.,265.99999999997));
#143 = CARTESIAN_POINT('',(36.999999770412,0.,268.00000000008));
#144 = CARTESIAN_POINT('',(37.000000856833,0.,269.99999999967));
#145 = CARTESIAN_POINT('',(36.999996802254,0.,272.00000000122));
#146 = CARTESIAN_POINT('',(37.00001193415,0.,273.99999999624));
#147 = CARTESIAN_POINT('',(36.999955461143,0.,276.00000006983));
#148 = CARTESIAN_POINT('',(37.000755467314,0.,278.00000023063));
#149 = CARTESIAN_POINT('',(37.002315754995,0.,280.00000037781));
#150 = CARTESIAN_POINT('',(37.004656392444,0.,282.0000005251));
#151 = CARTESIAN_POINT('',(37.00776629455,0.,284.00000066906));
#152 = CARTESIAN_POINT('',(37.011642723726,0.,286.00000081062));
#153 = CARTESIAN_POINT('',(37.016280705671,0.,288.00000094956));
#154 = CARTESIAN_POINT('',(37.021675865411,0.,290.00000108596));
#155 = CARTESIAN_POINT('',(37.027823667382,0.,292.00000121981));
#156 = CARTESIAN_POINT('',(37.03471961905,0.,294.00000135114));
#157 = CARTESIAN_POINT('',(37.042359216352,0.,296.00000147996));
#158 = CARTESIAN_POINT('',(37.050737958314,0.,298.00000160627));
#159 = CARTESIAN_POINT('',(37.059851343134,0.,300.00000173011));
#160 = CARTESIAN_POINT('',(37.069694869232,0.,302.00000185148));
#161 = CARTESIAN_POINT('',(37.080264034968,0.,304.0000019704));
#162 = CARTESIAN_POINT('',(37.091554338721,0.,306.00000208688));
#163 = CARTESIAN_POINT('',(37.103561278861,0.,308.00000220094));
#164 = CARTESIAN_POINT('',(37.116280353763,0.,310.0000023126));
#165 = CARTESIAN_POINT('',(37.1297070618,0.,312.00000242186));
#166 = CARTESIAN_POINT('',(37.143836901345,0.,314.00000252876));
#167 = CARTESIAN_POINT('',(37.158665370773,0.,316.00000263329));
#168 = CARTESIAN_POINT('',(37.174187968457,0.,318.00000273547));
#169 = CARTESIAN_POINT('',(37.19040019277,0.,320.00000283533));
#170 = CARTESIAN_POINT('',(37.207297542086,0.,322.00000293287));
#171 = CARTESIAN_POINT('',(37.22487551478,0.,324.00000302811));
#172 = CARTESIAN_POINT('',(37.243129609224,0.,326.00000312106));
#173 = CARTESIAN_POINT('',(37.262055323793,0.,328.00000321175));
#174 = CARTESIAN_POINT('',(37.281648156861,0.,330.00000330019));
#175 = CARTESIAN_POINT('',(37.301903606802,0.,332.00000338638));
#176 = CARTESIAN_POINT('',(37.32281717199,0.,334.00000347035));
#177 = CARTESIAN_POINT('',(37.344384350798,0.,336.00000355212));
#178 = CARTESIAN_POINT('',(37.366600641602,0.,338.00000363169));
#179 = CARTESIAN_POINT('',(37.389461542774,0.,340.00000370908));
#180 = CARTESIAN_POINT('',(37.412962552691,0.,342.00000378431));
#181 = CARTESIAN_POINT('',(37.437099169725,0.,344.00000385739));
#182 = CARTESIAN_POINT('',(37.461866892252,0.,346.00000392834));
#183 = CARTESIAN_POINT('',(37.487261218645,0.,348.00000399718));
#184 = CARTESIAN_POINT('',(37.513277647279,0.,350.00000406391));
#185 = CARTESIAN_POINT('',(37.539911676528,0.,352.00000412856));
#186 = CARTESIAN_POINT('',(37.567158804768,0.,354.00000419113));
#187 = CARTESIAN_POINT('',(37.595014530372,0.,356.00000425165));
#188 = CARTESIAN_POINT('',(37.623474351716,0.,358.00000431013));
#189 = CARTESIAN_POINT('',(37.652533767173,0.,360.00000436658));
#190 = CARTESIAN_POINT('',(37.68218827512,0.,362.00000442102));
#191 = CARTESIAN_POINT('',(37.712433373929,0.,364.00000447347));
#192 = CARTESIAN_POINT('',(37.743264561977,0.,366.00000452394));
#193 = CARTESIAN_POINT('',(37.774677337638,0.,368.00000457244));
#194 = CARTESIAN_POINT('',(37.806667199287,0.,370.000004619));
#195 = CARTESIAN_POINT('',(37.839229645299,0.,372.00000466362));
#196 = CARTESIAN_POINT('',(37.872360174049,0.,374.00000470632));
#197 = CARTESIAN_POINT('',(37.906054283912,0.,376.00000474712));
#198 = CARTESIAN_POINT('',(37.940307473264,0.,378.00000478603));
#199 = CARTESIAN_POINT('',(37.975115240478,0.,380.00000482307));
#200 = CARTESIAN_POINT('',(38.010473083931,0.,382.00000485825));
#201 = CARTESIAN_POINT('',(38.046376501997,0.,384.00000489158));
#202 = CARTESIAN_POINT('',(38.082820993052,0.,386.00000492309));
#203 = CARTESIAN_POINT('',(38.119802055471,0.,388.00000495279));
#204 = CARTESIAN_POINT('',(38.15731518763,0.,390.00000498069));
#205 = CARTESIAN_POINT('',(38.195355887903,0.,392.00000500681));
#206 = CARTESIAN_POINT('',(38.233919654666,0.,394.00000503117));
#207 = CARTESIAN_POINT('',(38.273001986296,0.,396.00000505377));
#208 = CARTESIAN_POINT('',(38.312598381166,0.,398.00000507464));
#209 = CARTESIAN_POINT('',(38.352704337653,0.,400.00000509379));
#210 = CARTESIAN_POINT('',(38.393315354132,0.,402.00000511123));
#211 = CARTESIAN_POINT('',(38.434426928979,0.,404.00000512698));
#212 = CARTESIAN_POINT('',(38.47603456057,0.,406.00000514106));
#213 = CARTESIAN_POINT('',(38.518133747279,0.,408.00000515348));
#214 = CARTESIAN_POINT('',(38.560719987484,0.,410.00000516425));
#215 = CARTESIAN_POINT('',(38.603788779559,0.,412.0000051734));
#216 = CARTESIAN_POINT('',(38.64733562188,0.,414.00000518093));
#217 = CARTESIAN_POINT('',(38.691356012824,0.,416.00000518686));
#218 = CARTESIAN_POINT('',(38.735845450766,0.,418.00000519122));
#219 = CARTESIAN_POINT('',(38.780799434082,0.,420.000005194));
#220 = CARTESIAN_POINT('',(38.826213461148,0.,422.00000519523));
#221 = CARTESIAN_POINT('',(38.872083030339,0.,424.00000519492));
#222 = CARTESIAN_POINT('',(38.918403640033,0.,426.0000051931));
#223 = CARTESIAN_POINT('',(38.965170788605,0.,428.00000518976));
#224 = CARTESIAN_POINT('',(39.01237997443,0.,430.00000518494));
#225 = CARTESIAN_POINT('',(39.060026695886,0.,432.00000517863));
#226 = CARTESIAN_POINT('',(39.108106451348,0.,434.00000517087));
#227 = CARTESIAN_POINT('',(39.156614739192,0.,436.00000516166));
#228 = CARTESIAN_POINT('',(39.205547057795,0.,438.00000515102));
#229 = CARTESIAN_POINT('',(39.254898905533,0.,440.00000513897));
#230 = CARTESIAN_POINT('',(39.304665780782,0.,442.00000512551));
#231 = CARTESIAN_POINT('',(39.354843181918,0.,444.00000511067));
#232 = CARTESIAN_POINT('',(39.405426607318,0.,446.00000509446));
#233 = CARTESIAN_POINT('',(39.456411555359,0.,448.0000050769));
#234 = CARTESIAN_POINT('',(39.507793524416,0.,450.000005058));
#235 = CARTESIAN_POINT('',(39.559568012865,0.,452.00000503777));
#236 = CARTESIAN_POINT('',(39.611730519084,0.,454.00000501624));
#237 = CARTESIAN_POINT('',(39.664276541449,0.,456.00000499341));
#238 = CARTESIAN_POINT('',(39.717201578337,0.,458.0000049693));
#239 = CARTESIAN_POINT('',(39.770501128123,0.,460.00000494393));
#240 = CARTESIAN_POINT('',(39.824170689185,0.,462.00000491732));
#241 = CARTESIAN_POINT('',(39.878205759899,0.,464.00000488947));
#242 = CARTESIAN_POINT('',(39.932601838642,0.,466.0000048604));
#243 = CARTESIAN_POINT('',(39.98735442379,0.,468.00000483013));
#244 = CARTESIAN_POINT('',(40.04245901372,0.,470.00000479868));
#245 = CARTESIAN_POINT('',(40.097911106809,0.,472.00000476605));
#246 = CARTESIAN_POINT('',(40.153706201433,0.,474.00000473227));
#247 = CARTESIAN_POINT('',(40.209839795969,0.,476.00000469735));
#248 = CARTESIAN_POINT('',(40.266307388795,0.,478.0000046613));
#249 = CARTESIAN_POINT('',(40.323104478286,0.,480.00000462414));
#250 = CARTESIAN_POINT('',(40.38022656282,0.,482.00000458589));
#251 = CARTESIAN_POINT('',(40.437669140774,0.,484.00000454655));
#252 = CARTESIAN_POINT('',(40.495427710524,0.,486.00000450615));
#253 = CARTESIAN_POINT('',(40.553497770447,0.,488.0000044647));
#254 = CARTESIAN_POINT('',(40.611874818921,0.,490.00000442222));
#255 = CARTESIAN_POINT('',(40.670554354321,0.,492.00000437872));
#256 = CARTESIAN_POINT('',(40.729531875026,0.,494.00000433421));
#257 = CARTESIAN_POINT('',(40.788802879412,0.,496.00000428871));
#258 = CARTESIAN_POINT('',(40.848362865856,0.,498.00000424225));
#259 = CARTESIAN_POINT('',(40.908207332736,0.,500.00000419482));
#260 = CARTESIAN_POINT('',(40.968331778428,0.,502.00000414645));
#261 = CARTESIAN_POINT('',(41.028731701309,0.,504.00000409715));
#262 = CARTESIAN_POINT('',(41.089402599756,0.,506.00000404694));
#263 = CARTESIAN_POINT('',(41.150339972147,0.,508.00000399583));
#264 = CARTESIAN_POINT('',(41.211539316859,0.,510.00000394383));
#265 = CARTESIAN_POINT('',(41.272996132269,0.,512.00000389097));
#266 = CARTESIAN_POINT('',(41.334705916754,0.,514.00000383726));
#267 = CARTESIAN_POINT('',(41.396664168692,0.,516.00000378272));
#268 = CARTESIAN_POINT('',(41.458866386459,0.,518.00000372735));
#269 = CARTESIAN_POINT('',(41.521308068432,0.,520.00000367117));
#270 = CARTESIAN_POINT('',(41.58398471299,0.,522.0000036142));
#271 = CARTESIAN_POINT('',(41.646891818509,0.,524.00000355646));
#272 = CARTESIAN_POINT('',(41.710024883367,0.,526.00000349795));
#273 = CARTESIAN_POINT('',(41.77337940594,0.,528.00000343871));
#274 = CARTESIAN_POINT('',(41.836950884607,0.,530.00000337872));
#275 = CARTESIAN_POINT('',(41.900734817744,0.,532.00000331803));
#276 = CARTESIAN_POINT('',(41.96472670373,0.,534.00000325663));
#277 = CARTESIAN_POINT('',(42.028922040941,0.,536.00000319455));
#278 = CARTESIAN_POINT('',(42.093316327754,0.,538.0000031318));
#279 = CARTESIAN_POINT('',(42.157905062548,0.,540.0000030684));
#280 = CARTESIAN_POINT('',(42.222683743699,0.,542.00000300435));
#281 = CARTESIAN_POINT('',(42.287647869585,0.,544.00000293968));
#282 = CARTESIAN_POINT('',(42.352792938584,0.,546.0000028744));
#283 = CARTESIAN_POINT('',(42.418114449073,0.,548.00000280853));
#284 = CARTESIAN_POINT('',(42.483607899429,0.,550.00000274208));
#285 = CARTESIAN_POINT('',(42.54926878803,0.,552.00000267507));
#286 = CARTESIAN_POINT('',(42.615092613253,0.,554.0000026075));
#287 = CARTESIAN_POINT('',(42.681074873476,0.,556.00000253941));
#288 = CARTESIAN_POINT('',(42.747211067077,0.,558.00000247079));
#289 = CARTESIAN_POINT('',(42.813496692433,0.,560.00000240167));
#290 = CARTESIAN_POINT('',(42.879927247921,0.,562.00000233207));
#291 = CARTESIAN_POINT('',(42.946498231919,0.,564.00000226199));
#292 = CARTESIAN_POINT('',(43.013205142805,0.,566.00000219146));
#293 = CARTESIAN_POINT('',(43.080043478957,0.,568.00000212048));
#294 = CARTESIAN_POINT('',(43.147008738751,0.,570.00000204907));
#295 = CARTESIAN_POINT('',(43.214096420566,0.,572.00000197726));
#296 = CARTESIAN_POINT('',(43.281302022778,0.,574.00000190504));
#297 = CARTESIAN_POINT('',(43.348621043767,0.,576.00000183245));
#298 = CARTESIAN_POINT('',(43.416048981908,0.,578.00000175949));
#299 = CARTESIAN_POINT('',(43.483581335581,0.,580.00000168617));
#300 = CARTESIAN_POINT('',(43.551213603162,0.,582.00000161252));
#301 = CARTESIAN_POINT('',(43.61894128303,0.,584.00000153855));
#302 = CARTESIAN_POINT('',(43.686759873561,0.,586.00000146428));
#303 = CARTESIAN_POINT('',(43.754664873134,0.,588.00000138971));
#304 = CARTESIAN_POINT('',(43.822651780126,0.,590.00000131487));
#305 = CARTESIAN_POINT('',(43.890716092916,0.,592.00000123977));
#306 = CARTESIAN_POINT('',(43.958853309879,0.,594.00000116442));
#307 = CARTESIAN_POINT('',(44.027058929395,0.,596.00000108884));
#308 = CARTESIAN_POINT('',(44.095328449842,0.,598.00000101305));
#309 = CARTESIAN_POINT('',(44.163657369595,0.,600.00000093705));
#310 = CARTESIAN_POINT('',(44.232041187035,0.,602.00000086087));
#311 = CARTESIAN_POINT('',(44.300475400537,0.,604.00000078453));
#312 = CARTESIAN_POINT('',(44.36895550848,0.,606.00000070803));
#313 = CARTESIAN_POINT('',(44.437477009242,0.,608.00000063138));
#314 = CARTESIAN_POINT('',(44.5060354012,0.,610.00000055462));
#315 = CARTESIAN_POINT('',(44.574626182732,0.,612.00000047774));
#316 = CARTESIAN_POINT('',(44.643244852216,0.,614.00000040078));
#317 = CARTESIAN_POINT('',(44.711886908029,0.,616.00000032373));
#318 = CARTESIAN_POINT('',(44.78054784855,0.,618.00000024662));
#319 = CARTESIAN_POINT('',(44.849223172155,0.,620.00000016946));
#320 = CARTESIAN_POINT('',(44.917908377223,0.,622.00000009227));
#321 = CARTESIAN_POINT('',(44.986598962131,0.,624.00000001506));
#322 = CARTESIAN_POINT('',(45.055290425258,0.,625.99999993785));
#323 = CARTESIAN_POINT('',(45.12397826498,0.,627.99999986065));
#324 = CARTESIAN_POINT('',(45.192657979676,0.,629.99999978347));
#325 = CARTESIAN_POINT('',(45.261325067723,0.,631.99999970634));
#326 = CARTESIAN_POINT('',(45.3299750275,0.,633.99999962927));
#327 = CARTESIAN_POINT('',(45.398603357383,0.,635.99999955227));
#328 = CARTESIAN_POINT('',(45.46720555575,0.,637.99999947535));
#329 = CARTESIAN_POINT('',(45.53577712098,0.,639.99999939854));
#330 = CARTESIAN_POINT('',(45.60431355145,0.,641.99999932185));
#331 = CARTESIAN_POINT('',(45.672810345537,0.,643.9999992453));
#332 = CARTESIAN_POINT('',(45.74126300162,0.,645.99999916889));
#333 = CARTESIAN_POINT('',(45.809667018076,0.,647.99999909264));
#334 = CARTESIAN_POINT('',(45.878017893282,0.,649.99999901657));
#335 = CARTESIAN_POINT('',(45.946311125618,0.,651.9999989407));
#336 = CARTESIAN_POINT('',(46.014542213459,0.,653.99999886504));
#337 = CARTESIAN_POINT('',(46.082706655184,0.,655.9999987896));
#338 = CARTESIAN_POINT('',(46.150799949171,0.,657.9999987144));
#339 = CARTESIAN_POINT('',(46.218817593798,0.,659.99999863945));
#340 = CARTESIAN_POINT('',(46.286755087441,0.,661.99999856477));
#341 = CARTESIAN_POINT('',(46.354607928479,0.,663.99999849038));
#342 = CARTESIAN_POINT('',(46.422371615289,0.,665.99999841629));
#343 = CARTESIAN_POINT('',(46.490041646249,0.,667.99999834251));
#344 = CARTESIAN_POINT('',(46.557613519737,0.,669.99999826907));
#345 = CARTESIAN_POINT('',(46.625082734131,0.,671.99999819597));
#346 = CARTESIAN_POINT('',(46.692444787807,0.,673.99999812323));
#347 = CARTESIAN_POINT('',(46.759695179143,0.,675.99999805086));
#348 = CARTESIAN_POINT('',(46.826829406518,0.,677.99999797889));
#349 = CARTESIAN_POINT('',(46.893842968309,0.,679.99999790732));
#350 = CARTESIAN_POINT('',(46.960731362893,0.,681.99999783618));
#351 = CARTESIAN_POINT('',(47.027490088649,0.,683.99999776547));
#352 = CARTESIAN_POINT('',(47.094114643952,0.,685.99999769521));
#353 = CARTESIAN_POINT('',(47.160600527182,0.,687.99999762542));
#354 = CARTESIAN_POINT('',(47.226943236716,0.,689.99999755611));
#355 = CARTESIAN_POINT('',(47.293138270931,0.,691.9999974873));
#356 = CARTESIAN_POINT('',(47.359181128205,0.,693.999997419));
#357 = CARTESIAN_POINT('',(47.425067306914,0.,695.99999735121));
#358 = CARTESIAN_POINT('',(47.490792305445,0.,697.99999728404));
#359 = CARTESIAN_POINT('',(47.534498576894,-0.,699.33333241306));
#360 = CARTESIAN_POINT('',(47.556323349343,0.,700.));
#361 = AXIS1_PLACEMENT('',#362,#363);
#362 = CARTESIAN_POINT('',(0.,0.,0.));
#363 = DIRECTION('',(0.,0.,1.));
#364 = DEFINITIONAL_REPRESENTATION('',(#365),#369);
#365 = LINE('',#366,#367);
#366 = CARTESIAN_POINT('',(0.,0.));
#367 = VECTOR('',#368,1.);
#368 = DIRECTION('',(1.,0.));
#369 = ( GEOMETRIC_REPRESENTATION_CONTEXT(2) 
PARAMETRIC_REPRESENTATION_CONTEXT() REPRESENTATION_CONTEXT('2D SPACE',''
  ) );
#370 = PCURVE('',#371,#376);
#371 = PLANE('',#372);
#372 = AXIS2_PLACEMENT_3D('',#373,#374,#375);
#373 = CARTESIAN_POINT('',(0.,0.,50.));
#374 = DIRECTION('',(0.,0.,1.));
#375 = DIRECTION('',(1.,0.,-0.));
#376 = DEFINITIONAL_REPRESENTATION('',(#377),#381);
#377 = CIRCLE('',#378,37.);
#378 = AXIS2_PLACEMENT_2D('',#379,#380);
#379 = CARTESIAN_POINT('',(0.,0.));
#380 = DIRECTION('',(1.,-0.));
#381 = ( GEOMETRIC_REPRESENTATION_CONTEXT(2) 
PARAMETRIC_REPRESENTATION_CONTEXT() REPRESENTATION_CONTEXT('2D SPACE',''
  ) );
#382 = ORIENTED_EDGE('',*,*,#383,.T.);
#383 = EDGE_CURVE('',#22,#384,#386,.T.);
#384 = VERTEX_POINT('',#385);
#385 = CARTESIAN_POINT('',(47.556323349343,0.,700.));
#386 = SEAM_CURVE('',#387,(#716,#723),.PCURVE_S1.);
#387 = B_SPLINE_CURVE_WITH_KNOTS('',3,(#388,#389,#390,#391,#392,#393,
    #394,#395,#396,#397,#398,#399,#400,#401,#402,#403,#404,#405,#406,
    #407,#408,#409,#410,#411,#412,#413,#414,#415,#416,#417,#418,#419,
    #420,#421,#422,#423,#424,#425,#426,#427,#428,#429,#430,#431,#432,
    #433,#434,#435,#436,#437,#438,#439,#440,#441,#442,#443,#444,#445,
    #446,#447,#448,#449,#450,#451,#452,#453,#454,#455,#456,#457,#458,
    #459,#460,#461,#462,#463,#464,#465,#466,#467,#468,#469,#470,#471,
    #472,#473,#474,#475,#476,#477,#478,#479,#480,#481,#482,#483,#484,
    #485,#486,#487,#488,#489,#490,#491,#492,#493,#494,#495,#496,#497,
    #498,#499,#500,#501,#502,#503,#504,#505,#506,#507,#508,#509,#510,
    #511,#512,#513,#514,#515,#516,#517,#518,#519,#520,#521,#522,#523,
    #524,#525,#526,#527,#528,#529,#530,#531,#532,#533,#534,#535,#536,
    #537,#538,#539,#540,#541,#542,#543,#544,#545,#546,#547,#548,#549,
    #550,#551,#552,#553,#554,#555,#556,#557,#558,#559,#560,#561,#562,
    #563,#564,#565,#566,#567,#568,#569,#570,#571,#572,#573,#574,#575,
    #576,#577,#578,#579,#580,#581,#582,#583,#584,#585,#586,#587,#588,
    #589,#590,#591,#592,#593,#594,#595,#596,#597,#598,#599,#600,#601,
    #602,#603,#604,#605,#606,#607,#608,#609,#610,#611,#612,#613,#614,
    #615,#616,#617,#618,#619,#620,#621,#622,#623,#624,#625,#626,#627,
    #628,#629,#630,#631,#632,#633,#634,#635,#636,#637,#638,#639,#640,
    #641,#642,#643,#644,#645,#646,#647,#648,#649,#650,#651,#652,#653,
    #654,#655,#656,#657,#658,#659,#660,#661,#662,#663,#664,#665,#666,
    #667,#668,#669,#670,#671,#672,#673,#674,#675,#676,#677,#678,#679,
    #680,#681,#682,#683,#684,#685,#686,#687,#688,#689,#690,#691,#692,
    #693,#694,#695,#696,#697,#698,#699,#700,#701,#702,#703,#704,#705,
    #706,#707,#708,#709,#710,#711,#712,#713,#714,#715),.UNSPECIFIED.,.F.
  ,.F.,(4,1,1,1,1,1,1,1,1,1,1,1,1,1,1,1,1,1,1,1,1,1,1,1,1,1,1,1,1,1,1,1,
    1,1,1,1,1,1,1,1,1,1,1,1,1,1,1,1,1,1,1,1,1,1,1,1,1,1,1,1,1,1,1,1,1,1,
    1,1,1,1,1,1,1,1,1,1,1,1,1,1,1,1,1,1,1,1,1,1,1,1,1,1,1,1,1,1,1,1,1,1,
    1,1,1,1,1,1,1,1,1,1,1,1,1,1,1,1,1,1,1,1,1,1,1,1,1,1,1,1,1,1,1,1,1,1,
    1,1,1,1,1,1,1,1,1,1,1,1,1,1,1,1,1,1,1,1,1,1,1,1,1,1,1,1,1,1,1,1,1,1,
    1,1,1,1,1,1,1,1,1,1,1,1,1,1,1,1,1,1,1,1,1,1,1,1,1,1,1,1,1,1,1,1,1,1,
    1,1,1,1,1,1,1,1,1,1,1,1,1,1,1,1,1,1,1,1,1,1,1,1,1,1,1,1,1,1,1,1,1,1,
    1,1,1,1,1,1,1,1,1,1,1,1,1,1,1,1,1,1,1,1,1,1,1,1,1,1,1,1,1,1,1,1,1,1,
    1,1,1,1,1,1,1,1,1,1,1,1,1,1,1,1,1,1,1,1,1,1,1,1,1,1,1,1,1,1,1,1,1,1,
    1,1,1,1,1,1,1,1,1,1,1,1,1,1,1,1,1,1,1,1,1,4),(0.,2.,4.,6.,8.,10.,12.
    ,14.,16.,18.,20.,22.,24.,26.,28.,30.,32.,34.,36.,38.,40.,42.,44.,46.
    ,48.,50.,52.,54.,56.,58.,60.,62.,64.,66.,68.,70.,72.,74.,76.,78.,80.
    ,82.,84.,86.,88.,90.,92.,94.,96.,98.,100.,102.,104.,106.,108.,110.,
    112.,114.,116.,118.,120.,122.,124.,126.,128.,130.,132.,134.,136.,
    138.,140.,142.,144.,146.,148.,150.,152.,154.,156.,158.,160.,162.,
    164.,166.,168.,170.,172.,174.,176.,178.,180.,182.,184.,186.,188.,
    190.,192.,194.,196.,198.,200.,202.,204.,206.,208.,210.,212.,214.,
    216.,218.,220.,222.,224.,226.00000000241,228.00000015606,
    230.0000007673,232.00000213478,234.00000455194,236.00000830701,
    238.00001368303,240.00002095791,242.00003040445,244.00004229036,
    246.0000568783,248.0000744259,250.00009518582,252.00011940572,
    254.00014732837,256.00017919162,258.00021522843,260.00025566696,
    262.00030073053,264.00035063768,266.00040560223,268.00046583325,
    270.00053153512,272.0006029076,274.00068014578,276.00076344017,
    278.00085297672,280.00094893682,282.00105149739,284.00116083084,
    286.00127710514,288.00140048388,290.00153112621,292.00166918697,
    294.00181481666,296.00196816148,298.00212936339,300.00229856008,
    302.00247588508,304.00266146772,306.0028554332,308.0030579026,
    310.00326899294,312.00348881716,314.00371748421,316.00395509904,
    318.00420176263,320.00445757205,322.00472262046,324.00499699716,
    326.00528078761,328.00557407347,330.00587693261,332.00618943917,
    334.00651166357,336.00684367254,338.00718552916,340.00753729289,
    342.00789901959,344.00827076157,346.00865256759,348.00904448293,
    350.00944654937,352.00985880528,354.0102812856,356.01071402189,
    358.01115704238,360.01161037196,362.01207403224,364.01254804157,
    366.01303241508,368.01352716469,370.01403229916,372.01454782412,
    374.01507374208,376.01561005249,378.01615675175,380.01671383324,
    382.01728128736,384.01785910155,386.01844726035,388.01904574538,
    390.01965453541,392.02027360637,394.02090293142,396.0215424809,
    398.02219222245,400.02285212098,402.02352213873,404.02420223528,
    406.02489236761,408.02559249009,410.02630255454,412.02702251026,
    414.02775230406,416.02849188025,418.02924118074,420.03000014502,
    422.03076871021,424.03154681107,426.03233438006,428.03313134735,
    430.03393764087,432.03475318631,434.03557790717,436.0364117248,
    438.0372545584,440.03810632509,442.0389669399,444.03983631583,
    446.04071436386,448.04160099301,450.04249611033,452.04339962096,
    454.04431142816,456.0452314333,458.04615953597,460.04709563392,
    462.04803962317,464.04899139796,466.04995085086,468.05091787276,
    470.05189235288,472.05287417886,474.05386323673,476.05485941097,
    478.05586258455,480.05687263892,482.0578894541,484.05891290865,
    486.05994287974,488.06097924317,490.06202187339,492.06307064355,
    494.06412542551,496.06518608989,498.06625250607,500.06732454226,
    502.0684020655,504.06948494171,506.0705730357,508.07166621123,
    510.072764331,512.07386725671,514.0749748491,516.07608696794,
    518.07720347209,520.07832421953,522.07944906738,524.08057787194,
    526.08171048871,528.08284677242,530.08398657707,532.08512975598,
    534.08627616174,536.08742564636,538.0885780612,540.08973325704,
    542.09089108412,544.09205139215,546.09321403035,548.09437884749,
    550.09554569188,552.09671441146,554.09788485379,556.09905686608,
    558.10023029525,560.10140498792,562.10258079048,564.10375754909,
    566.10493510972,568.1061133182,570.10729202022,572.10847106135,
    574.10965028715,576.11082954309,578.11200867465,580.11318752736,
    582.11436594677,584.11554377853,586.1167208684,588.11789706231,
    590.11907220632,592.12024614674,594.1214187301,596.12258980319,
    598.1237592131,600.12492680727,602.12609243346,604.12725593985,
    606.12841717503,608.12957598803,610.13073222837,612.13188574608,
    614.13303639172,616.13418401644,618.13532847196,620.13646961066,
    622.13760728558,624.13874135043,626.13987165967,628.14099806848,
    630.14212043286,632.1432386096,634.14435245633,636.14546183157,
    638.14656659475,640.1476666062,642.14876172725,644.14985182022,
    646.15093674844,648.15201637631,650.15309056931),.UNSPECIFIED.);
#388 = CARTESIAN_POINT('',(37.,0.,50.));
#389 = CARTESIAN_POINT('',(37.,0.,50.666666666667));
#390 = CARTESIAN_POINT('',(37.,0.,52.));
#391 = CARTESIAN_POINT('',(37.,0.,54.));
#392 = CARTESIAN_POINT('',(37.,0.,56.));
#393 = CARTESIAN_POINT('',(37.,0.,58.));
#394 = CARTESIAN_POINT('',(37.,0.,60.));
#395 = CARTESIAN_POINT('',(37.,0.,62.));
#396 = CARTESIAN_POINT('',(37.,0.,64.));
#397 = CARTESIAN_POINT('',(37.,0.,66.));
#398 = CARTESIAN_POINT('',(37.,0.,68.));
#399 = CARTESIAN_POINT('',(37.,0.,70.));
#400 = CARTESIAN_POINT('',(37.,0.,72.));
#401 = CARTESIAN_POINT('',(37.,0.,74.));
#402 = CARTESIAN_POINT('',(37.,0.,76.));
#403 = CARTESIAN_POINT('',(37.,0.,78.));
#404 = CARTESIAN_POINT('',(37.,0.,80.));
#405 = CARTESIAN_POINT('',(37.,0.,82.));
#406 = CARTESIAN_POINT('',(37.,0.,84.));
#407 = CARTESIAN_POINT('',(37.,0.,86.));
#408 = CARTESIAN_POINT('',(37.,0.,88.));
#409 = CARTESIAN_POINT('',(37.,0.,90.));
#410 = CARTESIAN_POINT('',(37.,0.,92.));
#411 = CARTESIAN_POINT('',(37.,0.,94.));
#412 = CARTESIAN_POINT('',(37.,0.,96.));
#413 = CARTESIAN_POINT('',(37.,0.,98.));
#414 = CARTESIAN_POINT('',(37.,0.,100.));
#415 = CARTESIAN_POINT('',(37.,0.,102.));
#416 = CARTESIAN_POINT('',(37.,0.,104.));
#417 = CARTESIAN_POINT('',(37.,0.,106.));
#418 = CARTESIAN_POINT('',(37.,0.,108.));
#419 = CARTESIAN_POINT('',(37.,0.,110.));
#420 = CARTESIAN_POINT('',(37.,0.,112.));
#421 = CARTESIAN_POINT('',(37.,0.,114.));
#422 = CARTESIAN_POINT('',(37.,0.,116.));
#423 = CARTESIAN_POINT('',(37.,0.,118.));
#424 = CARTESIAN_POINT('',(37.,0.,120.));
#425 = CARTESIAN_POINT('',(37.,0.,122.));
#426 = CARTESIAN_POINT('',(37.,0.,124.));
#427 = CARTESIAN_POINT('',(37.,0.,126.));
#428 = CARTESIAN_POINT('',(37.,0.,128.));
#429 = CARTESIAN_POINT('',(37.,0.,130.));
#430 = CARTESIAN_POINT('',(37.,0.,132.));
#431 = CARTESIAN_POINT('',(37.,0.,134.));
#432 = CARTESIAN_POINT('',(37.,0.,136.));
#433 = CARTESIAN_POINT('',(37.,0.,138.));
#434 = CARTESIAN_POINT('',(37.,0.,140.));
#435 = CARTESIAN_POINT('',(37.,0.,142.));
#436 = CARTESIAN_POINT('',(37.,0.,144.));
#437 = CARTESIAN_POINT('',(37.,0.,146.));
#438 = CARTESIAN_POINT('',(37.,0.,148.));
#439 = CARTESIAN_POINT('',(37.,0.,150.));
#440 = CARTESIAN_POINT('',(37.,0.,152.));
#441 = CARTESIAN_POINT('',(37.,0.,154.));
#442 = CARTESIAN_POINT('',(37.,0.,156.));
#443 = CARTESIAN_POINT('',(37.,0.,158.));
#444 = CARTESIAN_POINT('',(37.,0.,160.));
#445 = CARTESIAN_POINT('',(37.,0.,162.));
#446 = CARTESIAN_POINT('',(37.,0.,164.));
#447 = CARTESIAN_POINT('',(37.,0.,166.));
#448 = CARTESIAN_POINT('',(37.,0.,168.));
#449 = CARTESIAN_POINT('',(37.,0.,170.));
#450 = CARTESIAN_POINT('',(37.,0.,172.));
#451 = CARTESIAN_POINT('',(37.,0.,174.));
#452 = CARTESIAN_POINT('',(37.,0.,176.));
#453 = CARTESIAN_POINT('',(37.,0.,178.));
#454 = CARTESIAN_POINT('',(37.,0.,180.));
#455 = CARTESIAN_POINT('',(37.,0.,182.));
#456 = CARTESIAN_POINT('',(37.,0.,184.));
#457 = CARTESIAN_POINT('',(37.,0.,186.));
#458 = CARTESIAN_POINT('',(37.,0.,188.));
#459 = CARTESIAN_POINT('',(37.,0.,190.));
#460 = CARTESIAN_POINT('',(37.,0.,192.));
#461 = CARTESIAN_POINT('',(37.,0.,194.));
#462 = CARTESIAN_POINT('',(37.,0.,196.));
#463 = CARTESIAN_POINT('',(37.,0.,198.));
#464 = CARTESIAN_POINT('',(37.,0.,200.));
#465 = CARTESIAN_POINT('',(37.,0.,202.));
#466 = CARTESIAN_POINT('',(37.,0.,204.));
#467 = CARTESIAN_POINT('',(37.,0.,206.));
#468 = CARTESIAN_POINT('',(37.,0.,208.));
#469 = CARTESIAN_POINT('',(37.,0.,210.));
#470 = CARTESIAN_POINT('',(37.,0.,212.));
#471 = CARTESIAN_POINT('',(37.,0.,214.));
#472 = CARTESIAN_POINT('',(37.,0.,216.));
#473 = CARTESIAN_POINT('',(37.,0.,218.));
#474 = CARTESIAN_POINT('',(37.,0.,220.));
#475 = CARTESIAN_POINT('',(37.,0.,222.));
#476 = CARTESIAN_POINT('',(37.,0.,224.));
#477 = CARTESIAN_POINT('',(37.,0.,226.));
#478 = CARTESIAN_POINT('',(37.,0.,228.));
#479 = CARTESIAN_POINT('',(37.,0.,230.));
#480 = CARTESIAN_POINT('',(37.,0.,232.));
#481 = CARTESIAN_POINT('',(37.,0.,234.));
#482 = CARTESIAN_POINT('',(37.,0.,236.));
#483 = CARTESIAN_POINT('',(37.,0.,238.));
#484 = CARTESIAN_POINT('',(37.,0.,240.));
#485 = CARTESIAN_POINT('',(37.,0.,242.));
#486 = CARTESIAN_POINT('',(37.,0.,244.));
#487 = CARTESIAN_POINT('',(37.,0.,246.));
#488 = CARTESIAN_POINT('',(37.,0.,248.));
#489 = CARTESIAN_POINT('',(37.000000000002,0.,250.));
#490 = CARTESIAN_POINT('',(36.999999999994,0.,252.));
#491 = CARTESIAN_POINT('',(37.000000000023,0.,254.));
#492 = CARTESIAN_POINT('',(36.999999999915,0.,256.));
#493 = CARTESIAN_POINT('',(37.000000000317,0.,258.));
#494 = CARTESIAN_POINT('',(36.999999998817,0.,260.));
#495 = CARTESIAN_POINT('',(37.000000004417,0.,261.99999999999));
#496 = CARTESIAN_POINT('',(36.999999983516,0.,264.));
#497 = CARTESIAN_POINT('',(37.000000061518,0.,265.99999999997));
#498 = CARTESIAN_POINT('',(36.999999770412,0.,268.00000000008));
#499 = CARTESIAN_POINT('',(37.000000856833,0.,269.99999999967));
#500 = CARTESIAN_POINT('',(36.999996802254,0.,272.00000000122));
#501 = CARTESIAN_POINT('',(37.00001193415,0.,273.99999999624));
#502 = CARTESIAN_POINT('',(36.999955461143,0.,276.00000006983));
#503 = CARTESIAN_POINT('',(37.000755467314,0.,278.00000023063));
#504 = CARTESIAN_POINT('',(37.002315754995,0.,280.00000037781));
#505 = CARTESIAN_POINT('',(37.004656392444,0.,282.0000005251));
#506 = CARTESIAN_POINT('',(37.00776629455,0.,284.00000066906));
#507 = CARTESIAN_POINT('',(37.011642723726,0.,286.00000081062));
#508 = CARTESIAN_POINT('',(37.016280705671,0.,288.00000094956));
#509 = CARTESIAN_POINT('',(37.021675865411,0.,290.00000108596));
#510 = CARTESIAN_POINT('',(37.027823667382,0.,292.00000121981));
#511 = CARTESIAN_POINT('',(37.03471961905,0.,294.00000135114));
#512 = CARTESIAN_POINT('',(37.042359216352,0.,296.00000147996));
#513 = CARTESIAN_POINT('',(37.050737958314,0.,298.00000160627));
#514 = CARTESIAN_POINT('',(37.059851343134,0.,300.00000173011));
#515 = CARTESIAN_POINT('',(37.069694869232,0.,302.00000185148));
#516 = CARTESIAN_POINT('',(37.080264034968,0.,304.0000019704));
#517 = CARTESIAN_POINT('',(37.091554338721,0.,306.00000208688));
#518 = CARTESIAN_POINT('',(37.103561278861,0.,308.00000220094));
#519 = CARTESIAN_POINT('',(37.116280353763,0.,310.0000023126));
#520 = CARTESIAN_POINT('',(37.1297070618,0.,312.00000242186));
#521 = CARTESIAN_POINT('',(37.143836901345,0.,314.00000252876));
#522 = CARTESIAN_POINT('',(37.158665370773,0.,316.00000263329));
#523 = CARTESIAN_POINT('',(37.174187968457,0.,318.00000273547));
#524 = CARTESIAN_POINT('',(37.19040019277,0.,320.00000283533));
#525 = CARTESIAN_POINT('',(37.207297542086,0.,322.00000293287));
#526 = CARTESIAN_POINT('',(37.22487551478,0.,324.00000302811));
#527 = CARTESIAN_POINT('',(37.243129609224,0.,326.00000312106));
#528 = CARTESIAN_POINT('',(37.262055323793,0.,328.00000321175));
#529 = CARTESIAN_POINT('',(37.281648156861,0.,330.00000330019));
#530 = CARTESIAN_POINT('',(37.301903606802,0.,332.00000338638));
#531 = CARTESIAN_POINT('',(37.32281717199,0.,334.00000347035));
#532 = CARTESIAN_POINT('',(37.344384350798,0.,336.00000355212));
#533 = CARTESIAN_POINT('',(37.366600641602,0.,338.00000363169));
#534 = CARTESIAN_POINT('',(37.389461542774,0.,340.00000370908));
#535 = CARTESIAN_POINT('',(37.412962552691,0.,342.00000378431));
#536 = CARTESIAN_POINT('',(37.437099169725,0.,344.00000385739));
#537 = CARTESIAN_POINT('',(37.461866892252,0.,346.00000392834));
#538 = CARTESIAN_POINT('',(37.487261218645,0.,348.00000399718));
#539 = CARTESIAN_POINT('',(37.513277647279,0.,350.00000406391));
#540 = CARTESIAN_POINT('',(37.539911676528,0.,352.00000412856));
#541 = CARTESIAN_POINT('',(37.567158804768,0.,354.00000419113));
#542 = CARTESIAN_POINT('',(37.595014530372,0.,356.00000425165));
#543 = CARTESIAN_POINT('',(37.623474351716,0.,358.00000431013));
#544 = CARTESIAN_POINT('',(37.652533767173,0.,360.00000436658));
#545 = CARTESIAN_POINT('',(37.68218827512,0.,362.00000442102));
#546 = CARTESIAN_POINT('',(37.712433373929,0.,364.00000447347));
#547 = CARTESIAN_POINT('',(37.743264561977,0.,366.00000452394));
#548 = CARTESIAN_POINT('',(37.774677337638,0.,368.00000457244));
#549 = CARTESIAN_POINT('',(37.806667199287,0.,370.000004619));
#550 = CARTESIAN_POINT('',(37.839229645299,0.,372.00000466362));
#551 = CARTESIAN_POINT('',(37.872360174049,0.,374.00000470632));
#552 = CARTESIAN_POINT('',(37.906054283912,0.,376.00000474712));
#553 = CARTESIAN_POINT('',(37.940307473264,0.,378.00000478603));
#554 = CARTESIAN_POINT('',(37.975115240478,0.,380.00000482307));
#555 = CARTESIAN_POINT('',(38.010473083931,0.,382.00000485825));
#556 = CARTESIAN_POINT('',(38.046376501997,0.,384.00000489158));
#557 = CARTESIAN_POINT('',(38.082820993052,0.,386.00000492309));
#558 = CARTESIAN_POINT('',(38.119802055471,0.,388.00000495279));
#559 = CARTESIAN_POINT('',(38.15731518763,0.,390.00000498069));
#560 = CARTESIAN_POINT('',(38.195355887903,0.,392.00000500681));
#561 = CARTESIAN_POINT('',(38.233919654666,0.,394.00000503117));
#562 = CARTESIAN_POINT('',(38.273001986296,0.,396.00000505377));
#563 = CARTESIAN_POINT('',(38.312598381166,0.,398.00000507464));
#564 = CARTESIAN_POINT('',(38.352704337653,0.,400.00000509379));
#565 = CARTESIAN_POINT('',(38.393315354132,0.,402.00000511123));
#566 = CARTESIAN_POINT('',(38.434426928979,0.,404.00000512698));
#567 = CARTESIAN_POINT('',(38.47603456057,0.,406.00000514106));
#568 = CARTESIAN_POINT('',(38.518133747279,0.,408.00000515348));
#569 = CARTESIAN_POINT('',(38.560719987484,0.,410.00000516425));
#570 = CARTESIAN_POINT('',(38.603788779559,0.,412.0000051734));
#571 = CARTESIAN_POINT('',(38.64733562188,0.,414.00000518093));
#572 = CARTESIAN_POINT('',(38.691356012824,0.,416.00000518686));
#573 = CARTESIAN_POINT('',(38.735845450766,0.,418.00000519122));
#574 = CARTESIAN_POINT('',(38.780799434082,0.,420.000005194));
#575 = CARTESIAN_POINT('',(38.826213461148,0.,422.00000519523));
#576 = CARTESIAN_POINT('',(38.872083030339,0.,424.00000519492));
#577 = CARTESIAN_POINT('',(38.918403640033,0.,426.0000051931));
#578 = CARTESIAN_POINT('',(38.965170788605,0.,428.00000518976));
#579 = CARTESIAN_POINT('',(39.01237997443,0.,430.00000518494));
#580 = CARTESIAN_POINT('',(39.060026695886,0.,432.00000517863));
#581 = CARTESIAN_POINT('',(39.108106451348,0.,434.00000517087));
#582 = CARTESIAN_POINT('',(39.156614739192,0.,436.00000516166));
#583 = CARTESIAN_POINT('',(39.205547057795,0.,438.00000515102));
#584 = CARTESIAN_POINT('',(39.254898905533,0.,440.00000513897));
#585 = CARTESIAN_POINT('',(39.304665780782,0.,442.00000512551));
#586 = CARTESIAN_POINT('',(39.354843181918,0.,444.00000511067));
#587 = CARTESIAN_POINT('',(39.405426607318,0.,446.00000509446));
#588 = CARTESIAN_POINT('',(39.456411555359,0.,448.0000050769));
#589 = CARTESIAN_POINT('',(39.507793524416,0.,450.000005058));
#590 = CARTESIAN_POINT('',(39.559568012865,0.,452.00000503777));
#591 = CARTESIAN_POINT('',(39.611730519084,0.,454.00000501624));
#592 = CARTESIAN_POINT('',(39.664276541449,0.,456.00000499341));
#593 = CARTESIAN_POINT('',(39.717201578337,0.,458.0000049693));
#594 = CARTESIAN_POINT('',(39.770501128123,0.,460.00000494393));
#595 = CARTESIAN_POINT('',(39.824170689185,0.,462.00000491732));
#596 = CARTESIAN_POINT('',(39.878205759899,0.,464.00000488947));
#597 = CARTESIAN_POINT('',(39.932601838642,0.,466.0000048604));
#598 = CARTESIAN_POINT('',(39.98735442379,0.,468.00000483013));
#599 = CARTESIAN_POINT('',(40.04245901372,0.,470.00000479868));
#600 = CARTESIAN_POINT('',(40.097911106809,0.,472.00000476605));
#601 = CARTESIAN_POINT('',(40.153706201433,0.,474.00000473227));
#602 = CARTESIAN_POINT('',(40.209839795969,0.,476.00000469735));
#603 = CARTESIAN_POINT('',(40.266307388795,0.,478.0000046613));
#604 = CARTESIAN_POINT('',(40.323104478286,0.,480.00000462414));
#605 = CARTESIAN_POINT('',(40.38022656282,0.,482.00000458589));
#606 = CARTESIAN_POINT('',(40.437669140774,0.,484.00000454655));
#607 = CARTESIAN_POINT('',(40.495427710524,0.,486.00000450615));
#608 = CARTESIAN_POINT('',(40.553497770447,0.,488.0000044647));
#609 = CARTESIAN_POINT('',(40.611874818921,0.,490.00000442222));
#610 = CARTESIAN_POINT('',(40.670554354321,0.,492.00000437872));
#611 = CARTESIAN_POINT('',(40.729531875026,0.,494.00000433421));
#612 = CARTESIAN_POINT('',(40.788802879412,0.,496.00000428871));
#613 = CARTESIAN_POINT('',(40.848362865856,0.,498.00000424225));
#614 = CARTESIAN_POINT('',(40.908207332736,0.,500.00000419482));
#615 = CARTESIAN_POINT('',(40.968331778428,0.,502.00000414645));
#616 = CARTESIAN_POINT('',(41.028731701309,0.,504.00000409715));
#617 = CARTESIAN_POINT('',(41.089402599756,0.,506.00000404694));
#618 = CARTESIAN_POINT('',(41.150339972147,0.,508.00000399583));
#619 = CARTESIAN_POINT('',(41.211539316859,0.,510.00000394383));
#620 = CARTESIAN_POINT('',(41.272996132269,0.,512.00000389097));
#621 = CARTESIAN_POINT('',(41.334705916754,0.,514.00000383726));
#622 = CARTESIAN_POINT('',(41.396664168692,0.,516.00000378272));
#623 = CARTESIAN_POINT('',(41.458866386459,0.,518.00000372735));
#624 = CARTESIAN_POINT('',(41.521308068432,0.,520.00000367117));
#625 = CARTESIAN_POINT('',(41.58398471299,0.,522.0000036142));
#626 = CARTESIAN_POINT('',(41.646891818509,0.,524.00000355646));
#627 = CARTESIAN_POINT('',(41.710024883367,0.,526.00000349795));
#628 = CARTESIAN_POINT('',(41.77337940594,0.,528.00000343871));
#629 = CARTESIAN_POINT('',(41.836950884607,0.,530.00000337872));
#630 = CARTESIAN_POINT('',(41.900734817744,0.,532.00000331803));
#631 = CARTESIAN_POINT('',(41.96472670373,0.,534.00000325663));
#632 = CARTESIAN_POINT('',(42.028922040941,0.,536.00000319455));
#633 = CARTESIAN_POINT('',(42.093316327754,0.,538.0000031318));
#634 = CARTESIAN_POINT('',(42.157905062548,0.,540.0000030684));
#635 = CARTESIAN_POINT('',(42.222683743699,0.,542.00000300435));
#636 = CARTESIAN_POINT('',(42.287647869585,0.,544.00000293968));
#637 = CARTESIAN_POINT('',(42.352792938584,0.,546.0000028744));
#638 = CARTESIAN_POINT('',(42.418114449073,0.,548.00000280853));
#639 = CARTESIAN_POINT('',(42.483607899429,0.,550.00000274208));
#640 = CARTESIAN_POINT('',(42.54926878803,0.,552.00000267507));
#641 = CARTESIAN_POINT('',(42.615092613253,0.,554.0000026075));
#642 = CARTESIAN_POINT('',(42.681074873476,0.,556.00000253941));
#643 = CARTESIAN_POINT('',(42.747211067077,0.,558.00000247079));
#644 = CARTESIAN_POINT('',(42.813496692433,0.,560.00000240167));
#645 = CARTESIAN_POINT('',(42.879927247921,0.,562.00000233207));
#646 = CARTESIAN_POINT('',(42.946498231919,0.,564.00000226199));
#647 = CARTESIAN_POINT('',(43.013205142805,0.,566.00000219146));
#648 = CARTESIAN_POINT('',(43.080043478957,0.,568.00000212048));
#649 = CARTESIAN_POINT('',(43.147008738751,0.,570.00000204907));
#650 = CARTESIAN_POINT('',(43.214096420566,0.,572.00000197726));
#651 = CARTESIAN_POINT('',(43.281302022778,0.,574.00000190504));
#652 = CARTESIAN_POINT('',(43.348621043767,0.,576.00000183245));
#653 = CARTESIAN_POINT('',(43.416048981908,0.,578.00000175949));
#654 = CARTESIAN_POINT('',(43.483581335581,0.,580.00000168617));
#655 = CARTESIAN_POINT('',(43.551213603162,0.,582.00000161252));
#656 = CARTESIAN_POINT('',(43.61894128303,0.,584.00000153855));
#657 = CARTESIAN_POINT('',(43.686759873561,0.,586.00000146428));
#658 = CARTESIAN_POINT('',(43.754664873134,0.,588.00000138971));
#659 = CARTESIAN_POINT('',(43.822651780126,0.,590.00000131487));
#660 = CARTESIAN_POINT('',(43.890716092916,0.,592.00000123977));
#661 = CARTESIAN_POINT('',(43.958853309879,0.,594.00000116442));
#662 = CARTESIAN_POINT('',(44.027058929395,0.,596.00000108884));
#663 = CARTESIAN_POINT('',(44.095328449842,0.,598.00000101305));
#664 = CARTESIAN_POINT('',(44.163657369595,0.,600.00000093705));
#665 = CARTESIAN_POINT('',(44.232041187035,0.,602.00000086087));
#666 = CARTESIAN_POINT('',(44.300475400537,0.,604.00000078453));
#667 = CARTESIAN_POINT('',(44.36895550848,0.,606.00000070803));
#668 = CARTESIAN_POINT('',(44.437477009242,0.,608.00000063138));
#669 = CARTESIAN_POINT('',(44.5060354012,0.,610.00000055462));
#670 = CARTESIAN_POINT('',(44.574626182732,0.,612.00000047774));
#671 = CARTESIAN_POINT('',(44.643244852216,0.,614.00000040078));
#672 = CARTESIAN_POINT('',(44.711886908029,0.,616.00000032373));
#673 = CARTESIAN_POINT('',(44.78054784855,0.,618.00000024662));
#674 = CARTESIAN_POINT('',(44.849223172155,0.,620.00000016946));
#675 = CARTESIAN_POINT('',(44.917908377223,0.,622.00000009227));
#676 = CARTESIAN_POINT('',(44.986598962131,0.,624.00000001506));
#677 = CARTESIAN_POINT('',(45.055290425258,0.,625.99999993785));
#678 = CARTESIAN_POINT('',(45.12397826498,0.,627.99999986065));
#679 = CARTESIAN_POINT('',(45.192657979676,0.,629.99999978347));
#680 = CARTESIAN_POINT('',(45.261325067723,0.,631.99999970634));
#681 = CARTESIAN_POINT('',(45.3299750275,0.,633.99999962927));
#682 = CARTESIAN_POINT('',(45.398603357383,0.,635.99999955227));
#683 = CARTESIAN_POINT('',(45.46720555575,0.,637.99999947535));
#684 = CARTESIAN_POINT('',(45.53577712098,0.,639.99999939854));
#685 = CARTESIAN_POINT('',(45.60431355145,0.,641.99999932185));
#686 = CARTESIAN_POINT('',(45.672810345537,0.,643.9999992453));
#687 = CARTESIAN_POINT('',(45.74126300162,0.,645.99999916889));
#688 = CARTESIAN_POINT('',(45.809667018076,0.,647.99999909264));
#689 = CARTESIAN_POINT('',(45.878017893282,0.,649.99999901657));
#690 = CARTESIAN_POINT('',(45.946311125618,0.,651.9999989407));
#691 = CARTESIAN_POINT('',(46.014542213459,0.,653.99999886504));
#692 = CARTESIAN_POINT('',(46.082706655184,0.,655.9999987896));
#693 = CARTESIAN_POINT('',(46.150799949171,0.,657.9999987144));
#694 = CARTESIAN_POINT('',(46.218817593798,0.,659.99999863945));
#695 = CARTESIAN_POINT('',(46.286755087441,0.,661.99999856477));
#696 = CARTESIAN_POINT('',(46.354607928479,0.,663.99999849038));
#697 = CARTESIAN_POINT('',(46.422371615289,0.,665.99999841629));
#698 = CARTESIAN_POINT('',(46.490041646249,0.,667.99999834251));
#699 = CARTESIAN_POINT('',(46.557613519737,0.,669.99999826907));
#700 = CARTESIAN_POINT('',(46.625082734131,0.,671.99999819597));
#701 = CARTESIAN_POINT('',(46.692444787807,0.,673.99999812323));
#702 = CARTESIAN_POINT('',(46.759695179143,0.,675.99999805086));
#703 = CARTESIAN_POINT('',(46.826829406518,0.,677.99999797889));
#704 = CARTESIAN_POINT('',(46.893842968309,0.,679.99999790732));
#705 = CARTESIAN_POINT('',(46.960731362893,0.,681.99999783618));
#706 = CARTESIAN_POINT('',(47.027490088649,0.,683.99999776547));
#707 = CARTESIAN_POINT('',(47.094114643952,0.,685.99999769521));
#708 = CARTESIAN_POINT('',(47.160600527182,0.,687.99999762542));
#709 = CARTESIAN_POINT('',(47.226943236716,0.,689.99999755611));
#710 = CARTESIAN_POINT('',(47.293138270931,0.,691.9999974873));
#711 = CARTESIAN_POINT('',(47.359181128205,0.,693.999997419));
#712 = CARTESIAN_POINT('',(47.425067306914,0.,695.99999735121));
#713 = CARTESIAN_POINT('',(47.490792305445,0.,697.99999728404));
#714 = CARTESIAN_POINT('',(47.534498576894,-0.,699.33333241306));
#715 = CARTESIAN_POINT('',(47.556323349343,0.,700.));
#716 = PCURVE('',#31,#717);
#717 = DEFINITIONAL_REPRESENTATION('',(#718),#722);
#718 = LINE('',#719,#720);
#719 = CARTESIAN_POINT('',(0.,0.));
#720 = VECTOR('',#721,1.);
#721 = DIRECTION('',(0.,1.));
#722 = ( GEOMETRIC_REPRESENTATION_CONTEXT(2) 
PARAMETRIC_REPRESENTATION_CONTEXT() REPRESENTATION_CONTEXT('2D SPACE',''
  ) );
#723 = PCURVE('',#31,#724);
#724 = DEFINITIONAL_REPRESENTATION('',(#725),#729);
#725 = LINE('',#726,#727);
#726 = CARTESIAN_POINT('',(6.28318530718,0.));
#727 = VECTOR('',#728,1.);
#728 = DIRECTION('',(0.,1.));
#729 = ( GEOMETRIC_REPRESENTATION_CONTEXT(2) 
PARAMETRIC_REPRESENTATION_CONTEXT() REPRESENTATION_CONTEXT('2D SPACE',''
  ) );
#730 = ORIENTED_EDGE('',*,*,#731,.F.);
#731 = EDGE_CURVE('',#384,#384,#732,.T.);
#732 = SURFACE_CURVE('',#733,(#738,#745),.PCURVE_S1.);
#733 = CIRCLE('',#734,47.556323349343);
#734 = AXIS2_PLACEMENT_3D('',#735,#736,#737);
#735 = CARTESIAN_POINT('',(0.,0.,700.));
#736 = DIRECTION('',(0.,0.,1.));
#737 = DIRECTION('',(1.,0.,-0.));
#738 = PCURVE('',#31,#739);
#739 = DEFINITIONAL_REPRESENTATION('',(#740),#744);
#740 = LINE('',#741,#742);
#741 = CARTESIAN_POINT('',(0.,650.15309056931));
#742 = VECTOR('',#743,1.);
#743 = DIRECTION('',(1.,0.));
#744 = ( GEOMETRIC_REPRESENTATION_CONTEXT(2) 
PARAMETRIC_REPRESENTATION_CONTEXT() REPRESENTATION_CONTEXT('2D SPACE',''
  ) );
#745 = PCURVE('',#746,#751);
#746 = PLANE('',#747);
#747 = AXIS2_PLACEMENT_3D('',#748,#749,#750);
#748 = CARTESIAN_POINT('',(0.,0.,700.));
#749 = DIRECTION('',(0.,0.,1.));
#750 = DIRECTION('',(1.,0.,-0.));
#751 = DEFINITIONAL_REPRESENTATION('',(#752),#756);
#752 = CIRCLE('',#753,47.556323349343);
#753 = AXIS2_PLACEMENT_2D('',#754,#755);
#754 = CARTESIAN_POINT('',(0.,0.));
#755 = DIRECTION('',(1.,0.));
#756 = ( GEOMETRIC_REPRESENTATION_CONTEXT(2) 
PARAMETRIC_REPRESENTATION_CONTEXT() REPRESENTATION_CONTEXT('2D SPACE',''
  ) );
#757 = ORIENTED_EDGE('',*,*,#383,.F.);
#758 = ADVANCED_FACE('',(#759,#762),#746,.T.);
#759 = FACE_BOUND('',#760,.T.);
#760 = EDGE_LOOP('',(#761));
#761 = ORIENTED_EDGE('',*,*,#731,.T.);
#762 = FACE_BOUND('',#763,.T.);
#763 = EDGE_LOOP('',(#764));
#764 = ORIENTED_EDGE('',*,*,#765,.F.);
#765 = EDGE_CURVE('',#766,#766,#768,.T.);
#766 = VERTEX_POINT('',#767);
#767 = CARTESIAN_POINT('',(32.,0.,700.));
#768 = SURFACE_CURVE('',#769,(#774,#781),.PCURVE_S1.);
#769 = CIRCLE('',#770,32.);
#770 = AXIS2_PLACEMENT_3D('',#771,#772,#773);
#771 = CARTESIAN_POINT('',(0.,0.,700.));
#772 = DIRECTION('',(0.,0.,1.));
#773 = DIRECTION('',(1.,0.,-0.));
#774 = PCURVE('',#746,#775);
#775 = DEFINITIONAL_REPRESENTATION('',(#776),#780);
#776 = CIRCLE('',#777,32.);
#777 = AXIS2_PLACEMENT_2D('',#778,#779);
#778 = CARTESIAN_POINT('',(0.,0.));
#779 = DIRECTION('',(1.,0.));
#780 = ( GEOMETRIC_REPRESENTATION_CONTEXT(2) 
PARAMETRIC_REPRESENTATION_CONTEXT() REPRESENTATION_CONTEXT('2D SPACE',''
  ) );
#781 = PCURVE('',#782,#787);
#782 = CYLINDRICAL_SURFACE('',#783,32.);
#783 = AXIS2_PLACEMENT_3D('',#784,#785,#786);
#784 = CARTESIAN_POINT('',(0.,0.,700.));
#785 = DIRECTION('',(-0.,-0.,-1.));
#786 = DIRECTION('',(1.,0.,0.));
#787 = DEFINITIONAL_REPRESENTATION('',(#788),#792);
#788 = LINE('',#789,#790);
#789 = CARTESIAN_POINT('',(-0.,0.));
#790 = VECTOR('',#791,1.);
#791 = DIRECTION('',(-1.,0.));
#792 = ( GEOMETRIC_REPRESENTATION_CONTEXT(2) 
PARAMETRIC_REPRESENTATION_CONTEXT() REPRESENTATION_CONTEXT('2D SPACE',''
  ) );
#793 = ADVANCED_FACE('',(#794),#782,.F.);
#794 = FACE_BOUND('',#795,.T.);
#795 = EDGE_LOOP('',(#796,#797,#820,#842));
#796 = ORIENTED_EDGE('',*,*,#765,.T.);
#797 = ORIENTED_EDGE('',*,*,#798,.T.);
#798 = EDGE_CURVE('',#766,#799,#801,.T.);
#799 = VERTEX_POINT('',#800);
#800 = CARTESIAN_POINT('',(32.,0.,50.));
#801 = SEAM_CURVE('',#802,(#806,#813),.PCURVE_S1.);
#802 = LINE('',#803,#804);
#803 = CARTESIAN_POINT('',(32.,0.,700.));
#804 = VECTOR('',#805,1.);
#805 = DIRECTION('',(0.,0.,-1.));
#806 = PCURVE('',#782,#807);
#807 = DEFINITIONAL_REPRESENTATION('',(#808),#812);
#808 = LINE('',#809,#810);
#809 = CARTESIAN_POINT('',(-0.,0.));
#810 = VECTOR('',#811,1.);
#811 = DIRECTION('',(-0.,1.));
#812 = ( GEOMETRIC_REPRESENTATION_CONTEXT(2) 
PARAMETRIC_REPRESENTATION_CONTEXT() REPRESENTATION_CONTEXT('2D SPACE',''
  ) );
#813 = PCURVE('',#782,#814);
#814 = DEFINITIONAL_REPRESENTATION('',(#815),#819);
#815 = LINE('',#816,#817);
#816 = CARTESIAN_POINT('',(-6.28318530718,0.));
#817 = VECTOR('',#818,1.);
#818 = DIRECTION('',(-0.,1.));
#819 = ( GEOMETRIC_REPRESENTATION_CONTEXT(2) 
PARAMETRIC_REPRESENTATION_CONTEXT() REPRESENTATION_CONTEXT('2D SPACE',''
  ) );
#820 = ORIENTED_EDGE('',*,*,#821,.F.);
#821 = EDGE_CURVE('',#799,#799,#822,.T.);
#822 = SURFACE_CURVE('',#823,(#828,#835),.PCURVE_S1.);
#823 = CIRCLE('',#824,32.);
#824 = AXIS2_PLACEMENT_3D('',#825,#826,#827);
#825 = CARTESIAN_POINT('',(0.,0.,50.));
#826 = DIRECTION('',(0.,0.,1.));
#827 = DIRECTION('',(1.,0.,-0.));
#828 = PCURVE('',#782,#829);
#829 = DEFINITIONAL_REPRESENTATION('',(#830),#834);
#830 = LINE('',#831,#832);
#831 = CARTESIAN_POINT('',(-0.,650.));
#832 = VECTOR('',#833,1.);
#833 = DIRECTION('',(-1.,0.));
#834 = ( GEOMETRIC_REPRESENTATION_CONTEXT(2) 
PARAMETRIC_REPRESENTATION_CONTEXT() REPRESENTATION_CONTEXT('2D SPACE',''
  ) );
#835 = PCURVE('',#371,#836);
#836 = DEFINITIONAL_REPRESENTATION('',(#837),#841);
#837 = CIRCLE('',#838,32.);
#838 = AXIS2_PLACEMENT_2D('',#839,#840);
#839 = CARTESIAN_POINT('',(0.,0.));
#840 = DIRECTION('',(1.,-0.));
#841 = ( GEOMETRIC_REPRESENTATION_CONTEXT(2) 
PARAMETRIC_REPRESENTATION_CONTEXT() REPRESENTATION_CONTEXT('2D SPACE',''
  ) );
#842 = ORIENTED_EDGE('',*,*,#798,.F.);
#843 = ADVANCED_FACE('',(#844,#847),#371,.F.);
#844 = FACE_BOUND('',#845,.T.);
#845 = EDGE_LOOP('',(#846));
#846 = ORIENTED_EDGE('',*,*,#821,.T.);
#847 = FACE_BOUND('',#848,.T.);
#848 = EDGE_LOOP('',(#849));
#849 = ORIENTED_EDGE('',*,*,#21,.F.);
#850 = ( GEOMETRIC_REPRESENTATION_CONTEXT(3) 
GLOBAL_UNCERTAINTY_ASSIGNED_CONTEXT((#854)) GLOBAL_UNIT_ASSIGNED_CONTEXT
((#851,#852,#853)) REPRESENTATION_CONTEXT('Context #1',
  '3D Context with UNIT and UNCERTAINTY') );
#851 = ( LENGTH_UNIT() NAMED_UNIT(*) SI_UNIT(.MILLI.,.METRE.) );
#852 = ( NAMED_UNIT(*) PLANE_ANGLE_UNIT() SI_UNIT($,.RADIAN.) );
#853 = ( NAMED_UNIT(*) SI_UNIT($,.STERADIAN.) SOLID_ANGLE_UNIT() );
#854 = UNCERTAINTY_MEASURE_WITH_UNIT(LENGTH_MEASURE(1.E-07),#851,
  'distance_accuracy_value','confusion accuracy');
#855 = PRODUCT_RELATED_PRODUCT_CATEGORY('part',$,(#7));
ENDSEC;
END-ISO-10303-21;
